<svg xmlns="http://www.w3.org/2000/svg" viewBox="0 0 55.99 12"><defs><style>.cls-1{fill:#fff;fill-rule:evenodd;}</style></defs><title>i_demo_footer_asacp</title><g id="Layer_2" data-name="Layer 2"><g id="Layer_1-2" data-name="Layer 1"><path id="asacp" class="cls-1" d="M4.41.2,0,11.83H3.62l.63-1.91H8.2L9,12h8.84s2.58-.17,3.47-2.08a3.67,3.67,0,0,0-.95-4.63A10.58,10.58,0,0,0,16.87,4c-1.3-.35-1.73-.26-1.73-1a.88.88,0,0,1,.79-.8h9.3l-3.62,9.57h3.62l.63-1.92h3.95l.63,1.92H41a3.8,3.8,0,0,0,3-1.75A4.84,4.84,0,0,0,44.79,8L41.63,7s-.1,2.23-2.06,2.23A2.18,2.18,0,0,1,38,8.79a2.13,2.13,0,0,1-.79-1.45,5.74,5.74,0,0,1,.17-2.88A2.29,2.29,0,0,1,39.1,2.71h7.25V11.8h3.48V7.49h2.68S55.9,7,56,4.78s-.18-2.48-.47-3A3.5,3.5,0,0,0,53.14.15H37.52a5.15,5.15,0,0,0-3.79,4,8.8,8.8,0,0,0,.62,5.26H33.09L29.61,0H15.93s-4.26.18-4.09,3.34S15.05,6.61,16.1,7s2.2.56,2.2,1.43a1.09,1.09,0,0,1-.95,1.11H11.84L8.21.15H4.41ZM49.86,2.58h1.5a1.35,1.35,0,1,1,0,2.7h-1.5Zm-22.09.65L29,7.37H26.67Zm-21.61,0L7.42,7.37H5.05Z"/></g></g></svg>