<svg xmlns="http://www.w3.org/2000/svg" viewBox="0 0 39 12"><defs><style>.cls-1{fill:#fff;fill-rule:evenodd;}</style></defs><title>i_demo_footer_icra</title><g id="Layer_2" data-name="Layer 2"><g id="Layer_1-2" data-name="Layer 1"><g id="Footer"><g id="icons"><path id="icra" class="cls-1" d="M32.94,2.49l1.52,4.75H31.13l1.51-4.75ZM34.86.26H30.72L26.58,11.89h2.93l.91-2.43h4.74l.91,2.43H39ZM3.84,6V8.87A3.37,3.37,0,0,0,6.67,11.8c.81.1,2.22.2,2.53.2,1.71,0,5.05,0,5.35-3.14V7.55H11.82c.3,1.81-1.41,2.12-2.53,2.12-3,0-2.73-1.52-2.73-3.64V6c0-2.12-.3-3.64,2.73-3.64,1.12,0,2.83.31,2.53,2.12h2.73V3.14C14.25,0,10.91,0,9.2,0,8.89,0,7.48.1,6.67.2A3.37,3.37,0,0,0,3.84,3.13ZM21.72,2.39A1.19,1.19,0,0,1,23,3.8a1.21,1.21,0,0,1-.28,1.09,1.24,1.24,0,0,1-1,.43H18.29V2.39ZM23,.26H15.46V11.89h2.73V7.44h3.34a1.74,1.74,0,0,1,1.71,1.21v3.24H26V8.25a3.07,3.07,0,0,0-1.51-1.82c1.31-.5,1.41-1.82,1.41-2.83C25.87,2.28,25.46.26,23,.26ZM2.73.26V11.89H0V.26Z"/></g></g></g></g></svg>