<svg xmlns="http://www.w3.org/2000/svg" viewBox="0 0 157 68.99"><defs><style>.cls-1{fill:#fff;fill-rule:evenodd;}</style></defs><title>i_demosite_logo</title><g id="Layer_2" data-name="Layer 2"><g id="Layer_1-2" data-name="Layer 1"><path id="Logo" class="cls-1" d="M127,27.75h11.73l6.64-6.44H127.41Zm28.5-21.93c-4-2.84-5-2.63-5-2.63l-.16,3.37H128.54l-.47,5.55h20.7l-.5,6.38,2.4-2.21,3.75-3.74s5-3.89,1.05-6.72ZM117.59,0H38.53L56.59,39.09H43.54l-3.2-7.61H20.42l-2.67,5.64S58.53,60.57,64.18,63.66A40.07,40.07,0,0,0,73,67.14s19.4,5.87,28.61-3.28c1.46-1.4,6-6,6-6H96.89L84.39,30.08,82,57.89H68l-18.73-40H61L73.54,46.28,76.19,17.9H89L102.18,47l1.31-29.1H114l-2.47,36.15,17.74-17.13-14.57,0ZM19,5.26C17.94,6.43,8.21,15.7,8.21,15.7L2.6,21.05S-.49,24.26.07,26.72s8.17,5.11,8.17,5.11l15-29.28A9.58,9.58,0,0,0,19,5.26ZM30.62,9.18,24.14,23l12.5,0Z"/></g></g></svg>