<svg xmlns="http://www.w3.org/2000/svg" viewBox="0 0 31 12"><defs><style>.cls-1{fill:#fff;fill-rule:evenodd;}</style></defs><title>i_demo_footer_rta</title><g id="Layer_2" data-name="Layer 2"><g id="Layer_1-2" data-name="Layer 1"><g id="icons"><path id="rta" class="cls-1" d="M3.52,4.83H5.05c.87,0,1.64-.31,1.64-1.18,0-1.16-.82-1.2-1.64-1.2H3.52Zm22.53,2.6-1.26-4.3-1.24,4.3ZM0,12V0H26.74L31,12H27.34l-.56-2h-4l-.54,2H18.67l3.2-9H17.18v9h-3.5V3H10.22a3.82,3.82,0,0,1-.39,2.08A3.39,3.39,0,0,1,7.61,6.71,3.15,3.15,0,0,1,9.46,8.52L11.16,12h-4L5.32,8.34a1.67,1.67,0,0,0-1.49-1.2H3.52V12Z"/></g></g></g></svg>